<svg width="15" height="16" viewBox="0 0 15 16" fill="none" xmlns="http://www.w3.org/2000/svg">
<g clip-path="url(#clip0_310_4608)">
<path d="M7.50001 0.5C4.74306 0.5 2.5 2.74306 2.5 5.50001C2.5 6.32765 2.70692 7.14825 3.10029 7.8761L7.22658 15.3389C7.28151 15.4384 7.38619 15.5 7.50001 15.5C7.61383 15.5 7.71851 15.4384 7.77344 15.3389L11.9012 7.87364C12.2931 7.14825 12.5 6.32762 12.5 5.49998C12.5 2.74306 10.257 0.5 7.50001 0.5ZM7.50001 8C6.12153 8 5.00002 6.87849 5.00002 5.50001C5.00002 4.12153 6.12153 3.00002 7.50001 3.00002C8.87849 3.00002 10 4.12153 10 5.50001C10 6.87849 8.87849 8 7.50001 8Z" fill="#1E1E1E"/>
</g>
<defs>
<clipPath id="clip0_310_4608">
<rect width="15" height="15" fill="white" transform="translate(0 0.5)"/>
</clipPath>
</defs>
</svg>
