<svg width="19" height="16" viewBox="0 0 19 16" fill="none" xmlns="http://www.w3.org/2000/svg">
<path d="M8.76574 2.67366L9.25268 3.14514L9.73961 2.67365C10.1808 2.24639 11.2015 1.4801 12.424 1.15731C13.6031 0.84594 14.9579 0.942278 16.2475 2.19077C17.5321 3.43441 17.6229 4.72559 17.3077 5.84426C16.9775 7.01607 16.1911 8.00016 15.7485 8.42855L11.8831 12.1712L9.71669 14.2689L9.25294 14.7179L8.78925 14.2689L6.62302 12.1712L2.7578 8.42857C2.31525 8.00017 1.52876 7.01596 1.19848 5.84405C0.883176 4.72524 0.973802 3.43406 2.25815 2.19058C3.54753 0.942233 4.90221 0.845932 6.08138 1.15733C7.30381 1.48016 8.32451 2.24645 8.76574 2.67366Z" stroke="#202020" stroke-width="1.4"/>
</svg>
