<svg width="24" height="22" viewBox="0 0 24 22" fill="none" xmlns="http://www.w3.org/2000/svg">
<g clip-path="url(#clip0_520_2140)">
<path d="M19.2315 16.4221C17.5611 16.4221 16.2021 17.6732 16.2021 19.211C16.2021 20.7488 17.5611 21.9999 19.2315 21.9999C20.9019 21.9999 22.2609 20.7488 22.2609 19.211C22.2609 17.6732 20.9019 16.4221 19.2315 16.4221ZM19.2315 20.3265C18.5633 20.3265 18.0198 19.8262 18.0198 19.211C18.0198 18.5958 18.5633 18.0955 19.2315 18.0955C19.8998 18.0955 20.4433 18.5958 20.4433 19.211C20.4433 19.8262 19.8998 20.3265 19.2315 20.3265ZM23.8065 4.11385C23.6344 3.91111 23.3706 3.79286 23.091 3.79286H5.60987L4.79192 0.642263C4.69407 0.265782 4.3284 3.81985e-09 3.90792 3.81985e-09H0.908815C0.40686 -4.36754e-05 0 0.374514 0 0.836619C0 1.29872 0.40686 1.67328 0.908815 1.67328H3.19058L6.14423 14.5801C6.24208 14.957 6.60775 15.2224 7.02823 15.2224H20.8795C21.2973 15.2224 21.6614 14.9603 21.7617 14.5871L23.9732 4.83055C24.0401 4.58072 23.9786 4.31659 23.8065 4.11385ZM20.1685 13.5492H7.74557L6.04425 5.46618H21.9298L20.1685 13.5492ZM8.23935 16.4221C6.56891 16.4221 5.20996 17.6732 5.20996 19.211C5.20996 20.7488 6.56896 21.9999 8.23935 21.9999C9.90973 21.9999 11.2687 20.7488 11.2687 19.211C11.2687 17.6732 9.90973 16.4221 8.23935 16.4221ZM8.23935 20.3265C7.57107 20.3265 7.02759 19.8262 7.02759 19.211C7.02759 18.5958 7.57107 18.0955 8.23935 18.0955C8.90762 18.0955 9.4511 18.5958 9.4511 19.211C9.4511 19.8262 8.90762 20.3265 8.23935 20.3265Z" fill="white"/>
</g>
<defs>
<clipPath id="clip0_520_2140">
<rect width="24" height="22" fill="white"/>
</clipPath>
</defs>
</svg>
