<svg width="24" height="20" viewBox="0 0 24 20" fill="none" xmlns="http://www.w3.org/2000/svg">
<path d="M11.5225 2.92598L11.9995 3.37013L12.4765 2.92597C13.0894 2.35532 14.5005 1.33475 16.2036 0.902317C17.8686 0.479534 19.7936 0.616369 21.6025 2.30036C22.5213 3.15573 22.9887 4.01592 23.1841 4.82618C23.3806 5.64119 23.3131 6.453 23.0878 7.22199C22.6306 8.78213 21.5459 10.087 20.9302 10.6602C20.258 11.2859 17.9061 13.4757 15.7224 15.509L12.8037 18.2266L11.9999 18.975L11.1961 18.2266L8.27766 15.509C6.09406 13.4757 3.74236 11.2859 3.0702 10.6602C2.45448 10.0871 1.36967 8.782 0.912397 7.22172C0.687005 6.45266 0.619377 5.64081 0.815801 4.8258C1.01108 4.01553 1.47838 3.15539 2.39703 2.30012C4.20561 0.616302 6.13045 0.479526 7.79545 0.902349C9.49846 1.33482 10.9097 2.35539 11.5225 2.92598Z" stroke="white" stroke-width="1.4"/>
</svg>
