<svg width="155" height="62" viewBox="0 0 155 62" fill="none" xmlns="http://www.w3.org/2000/svg">
<path fill-rule="evenodd" clip-rule="evenodd" d="M78.5244 57.7376H78.1609L77.2027 54.361C77.1696 54.2774 77.1531 54.1437 77.1201 53.9932H77.1036C77.1036 54.0601 77.0705 54.1771 77.021 54.361L75.9471 57.7376H75.5671L74.2454 53.2744H74.675L75.6993 56.835C75.7323 56.9185 75.7488 57.0523 75.7654 57.2027H75.7984C75.8149 57.1191 75.8314 56.9854 75.881 56.835L77.0044 53.2744H77.2688L78.2765 56.835C78.2931 56.9185 78.3096 57.0355 78.3261 57.2027H78.3592C78.3592 57.1191 78.3922 56.9854 78.4418 56.835L79.4826 53.2744H79.8956L78.5244 57.7376ZM82.5224 57.8379C81.8781 57.8379 81.3825 57.6206 81.0025 57.2027C80.6225 56.7681 80.4408 56.2165 80.4408 55.5311C80.4408 54.7789 80.6391 54.2105 81.019 53.7926C81.4155 53.3747 81.9277 53.1574 82.572 53.1574C83.1998 53.1574 83.6954 53.3747 84.0589 53.7926C84.4224 54.1938 84.6041 54.7789 84.6041 55.5144C84.6041 56.1997 84.4224 56.7681 84.0589 57.2027C83.6789 57.6206 83.1668 57.8379 82.5224 57.8379ZM82.5555 53.5252C82.0433 53.5252 81.6303 53.709 81.3164 54.0601C81.0025 54.4111 80.8538 54.9126 80.8538 55.5311C80.8538 56.1162 81.0025 56.5842 81.2999 56.9353C81.5973 57.303 82.0103 57.4702 82.539 57.4702C83.0676 57.4702 83.4807 57.303 83.7615 56.952C84.0589 56.6009 84.1911 56.1162 84.1911 55.4977C84.1911 54.8625 84.0589 54.3777 83.7615 54.0434C83.4807 53.6923 83.0842 53.5252 82.5555 53.5252ZM87.7761 53.6923C87.644 53.592 87.4953 53.5419 87.3135 53.5419C86.9666 53.5419 86.6857 53.7258 86.4379 54.0935C86.2066 54.4446 86.091 54.9628 86.091 55.6314V57.7376H85.6945V53.2744H86.091V54.2607H86.1075C86.2066 53.9264 86.3718 53.6589 86.5866 53.4583C86.8014 53.2744 87.0492 53.1741 87.3466 53.1741C87.5118 53.1741 87.644 53.2076 87.7761 53.2577V53.6923ZM91.1299 57.7376L89.0317 55.5311H88.9987V57.7376H88.6022V51.1348H88.9987V55.3807H89.0317L91.0308 53.2744H91.5429L89.4447 55.4308L91.7081 57.7376H91.1299ZM96.6644 57.537V57.0523C96.8131 57.186 96.9948 57.2863 97.2096 57.3532C97.4244 57.4367 97.6061 57.4702 97.7548 57.4702C98.4487 57.4702 98.7956 57.186 98.7956 56.6176C98.7956 56.4171 98.7295 56.2499 98.5643 56.1162C98.4156 55.9657 98.1678 55.832 97.8374 55.6815C97.4079 55.4977 97.1105 55.2971 96.9453 55.0965C96.7635 54.8959 96.6809 54.6619 96.6809 54.3777C96.6809 54.0099 96.8296 53.7258 97.094 53.4917C97.3748 53.2744 97.7052 53.1574 98.1183 53.1574C98.4817 53.1574 98.8122 53.241 99.0765 53.3914V53.8428C98.7626 53.6422 98.4156 53.5252 98.0687 53.5252C97.7713 53.5252 97.54 53.6087 97.3583 53.7592C97.1931 53.9096 97.094 54.1102 97.094 54.3443C97.094 54.5616 97.1601 54.7287 97.2592 54.8625C97.3748 54.9962 97.6226 55.1466 98.0026 55.3138C98.4652 55.5311 98.7791 55.7317 98.9608 55.8989C99.1261 56.0827 99.2087 56.3168 99.2087 56.6176C99.2087 56.9687 99.0765 57.2696 98.8122 57.4869C98.5478 57.7209 98.2009 57.8379 97.7383 57.8379C97.3087 57.8379 96.9453 57.7376 96.6644 57.537ZM102.067 57.6708C101.852 57.7711 101.654 57.8212 101.489 57.8212C100.828 57.8212 100.497 57.42 100.497 56.6344V53.6422H99.7043V53.2744H100.497V52.1043C100.563 52.0876 100.629 52.0709 100.696 52.0374C100.778 52.0207 100.844 52.004 100.894 51.9706V53.2744H102.067V53.6422H100.894V56.5842C100.894 56.8851 100.943 57.1024 101.042 57.2529C101.142 57.3866 101.307 57.4534 101.538 57.4534C101.703 57.4534 101.869 57.4033 102.067 57.2863V57.6708ZM105.85 57.7376V56.9185H105.834C105.52 57.537 105.041 57.8379 104.413 57.8379C103.372 57.8379 102.843 57.1693 102.843 55.8487V53.2744H103.24V55.7484C103.24 56.3502 103.339 56.7848 103.537 57.069C103.735 57.3364 104.049 57.4702 104.462 57.4702C104.875 57.4702 105.206 57.3197 105.47 57.0188C105.718 56.7179 105.85 56.3 105.85 55.7986V53.2744H106.247V57.7376H105.85ZM110.773 57.7376V56.9185H110.757C110.625 57.2027 110.41 57.42 110.129 57.5872C109.848 57.7543 109.534 57.8379 109.171 57.8379C108.626 57.8379 108.196 57.6373 107.849 57.2361C107.502 56.835 107.337 56.2833 107.337 55.5812C107.337 54.8625 107.519 54.2774 107.899 53.8261C108.262 53.3914 108.758 53.1574 109.353 53.1574C110.013 53.1574 110.476 53.4416 110.757 53.9765H110.773V51.1348H111.17V57.7376H110.773ZM110.773 55.0129C110.773 54.595 110.658 54.244 110.393 53.9598C110.129 53.6756 109.782 53.5252 109.336 53.5252C108.873 53.5252 108.493 53.709 108.196 54.0601C107.899 54.4278 107.75 54.9126 107.75 55.5478C107.75 56.1663 107.882 56.6344 108.147 56.9687C108.427 57.303 108.774 57.4702 109.204 57.4702C109.699 57.4702 110.096 57.3197 110.36 57.0021C110.641 56.6845 110.773 56.3 110.773 55.8487V55.0129ZM113.665 58.6403C113.499 59.0415 113.318 59.3424 113.136 59.5262C112.938 59.7268 112.69 59.8271 112.376 59.8271C112.244 59.8271 112.128 59.8104 112.029 59.7603V59.3591C112.145 59.4092 112.26 59.4259 112.392 59.4259C112.756 59.4259 113.02 59.1752 113.235 58.6904L113.631 57.6875L111.963 53.2744H112.409L113.747 56.9018C113.764 56.9854 113.797 57.0355 113.797 57.0857C113.813 57.1358 113.83 57.186 113.846 57.2361H113.863L113.962 56.9353L115.383 53.2744H115.812L113.665 58.6403ZM121.628 57.7376V56.835H121.611C121.479 57.1358 121.264 57.3866 121 57.5705C120.736 57.7543 120.438 57.8379 120.108 57.8379C119.695 57.8379 119.364 57.7209 119.116 57.4869C118.869 57.2361 118.753 56.9353 118.753 56.5842C118.753 55.7986 119.265 55.3305 120.273 55.1633L121.628 54.9628C121.628 54.0099 121.281 53.5252 120.57 53.5252C120.075 53.5252 119.612 53.7258 119.15 54.1269V53.6422C119.315 53.5085 119.529 53.3914 119.81 53.3079C120.091 53.2076 120.356 53.1574 120.603 53.1574C121.049 53.1574 121.413 53.3079 121.661 53.592C121.909 53.8762 122.024 54.2941 122.024 54.829V57.7376H121.628ZM120.422 55.5144C119.959 55.5812 119.629 55.6815 119.447 55.832C119.265 55.9824 119.166 56.2332 119.166 56.5675C119.166 56.835 119.249 57.0523 119.43 57.2194C119.596 57.3866 119.843 57.4702 120.157 57.4702C120.57 57.4702 120.934 57.3197 121.215 57.0021C121.495 56.6845 121.628 56.2666 121.628 55.7651V55.3305L120.422 55.5144ZM126.353 57.7376V55.1299C126.353 54.0601 125.973 53.5252 125.213 53.5252C124.783 53.5252 124.436 53.6923 124.155 53.9932C123.891 54.3108 123.742 54.712 123.742 55.1633V57.7376H123.346V53.2744H123.742V54.0768H123.775C124.089 53.475 124.585 53.1574 125.279 53.1574C125.758 53.1574 126.121 53.3246 126.369 53.6422C126.617 53.9598 126.749 54.4278 126.749 55.0129V57.7376H126.353ZM131.193 57.7376V56.9185H131.177C131.045 57.2027 130.83 57.42 130.549 57.5872C130.268 57.7543 129.954 57.8379 129.591 57.8379C129.046 57.8379 128.616 57.6373 128.269 57.2361C127.922 56.835 127.757 56.2833 127.757 55.5812C127.757 54.8625 127.939 54.2774 128.319 53.8261C128.682 53.3914 129.178 53.1574 129.773 53.1574C130.433 53.1574 130.896 53.4416 131.177 53.9765H131.193V51.1348H131.59V57.7376H131.193ZM131.193 55.0129C131.193 54.595 131.078 54.244 130.813 53.9598C130.549 53.6756 130.202 53.5252 129.756 53.5252C129.293 53.5252 128.913 53.709 128.616 54.0601C128.319 54.4278 128.17 54.9126 128.17 55.5478C128.17 56.1663 128.302 56.6344 128.566 56.9687C128.847 57.303 129.194 57.4702 129.624 57.4702C130.119 57.4702 130.516 57.3197 130.78 57.0021C131.061 56.6845 131.193 56.3 131.193 55.8487V55.0129ZM135.836 56.9353H135.819V59.777H135.423V53.2744H135.819V54.1938H135.836C136.001 53.8595 136.216 53.6087 136.513 53.4249C136.81 53.2577 137.124 53.1574 137.488 53.1574C138.05 53.1574 138.479 53.358 138.793 53.7425C139.107 54.1437 139.272 54.6619 139.272 55.3472C139.272 56.0827 139.09 56.6845 138.727 57.1526C138.363 57.6039 137.884 57.8379 137.306 57.8379C136.645 57.8379 136.15 57.537 135.836 56.9353ZM135.819 55.2804V55.832C135.819 56.2833 135.951 56.6678 136.232 56.9854C136.513 57.3197 136.877 57.4702 137.339 57.4702C137.785 57.4702 138.149 57.2696 138.43 56.8851C138.71 56.5006 138.859 55.9824 138.859 55.3472C138.859 54.7956 138.727 54.3443 138.463 54.0266C138.215 53.6923 137.868 53.5252 137.438 53.5252C136.926 53.5252 136.53 53.709 136.249 54.0434C135.968 54.3944 135.819 54.8123 135.819 55.2804ZM140.362 57.7376V51.1348H140.759V57.7376H140.362ZM144.807 57.7376V56.835H144.79C144.641 57.1358 144.443 57.3866 144.162 57.5705C143.898 57.7543 143.601 57.8379 143.27 57.8379C142.857 57.8379 142.527 57.7209 142.279 57.4869C142.048 57.2361 141.915 56.9353 141.915 56.5842C141.915 55.7986 142.428 55.3305 143.452 55.1633L144.807 54.9628C144.807 54.0099 144.443 53.5252 143.733 53.5252C143.254 53.5252 142.775 53.7258 142.312 54.1269V53.6422C142.477 53.5085 142.708 53.3914 142.989 53.3079C143.254 53.2076 143.518 53.1574 143.766 53.1574C144.228 53.1574 144.575 53.3079 144.823 53.592C145.071 53.8762 145.203 54.2941 145.203 54.829V57.7376H144.807ZM143.584 55.5144C143.121 55.5812 142.808 55.6815 142.609 55.832C142.428 55.9824 142.328 56.2332 142.328 56.5675C142.328 56.835 142.428 57.0523 142.593 57.2194C142.775 57.3866 143.006 57.4702 143.32 57.4702C143.749 57.4702 144.096 57.3197 144.377 57.0021C144.658 56.6845 144.807 56.2666 144.807 55.7651V55.3305L143.584 55.5144ZM147.599 58.6403C147.433 59.0415 147.252 59.3424 147.07 59.5262C146.872 59.7268 146.624 59.8271 146.31 59.8271C146.178 59.8271 146.062 59.8104 145.963 59.7603V59.3591C146.079 59.4092 146.194 59.4259 146.327 59.4259C146.69 59.4259 146.954 59.1752 147.169 58.6904L147.566 57.6875L145.897 53.2744H146.343L147.681 56.9018C147.698 56.9854 147.731 57.0355 147.731 57.0857C147.747 57.1358 147.764 57.186 147.78 57.2361H147.797L147.896 56.9353L149.317 53.2744H149.746L147.599 58.6403ZM92.3524 58.8075H92.022L92.6663 56.7347H93.0959L92.3524 58.8075Z" fill="white"/>
<path fill-rule="evenodd" clip-rule="evenodd" d="M153.084 22.9678C153.414 22.9678 153.728 23.0514 154.025 23.2185C154.339 23.3857 154.57 23.6197 154.752 23.9373C154.917 24.2382 155 24.5725 155 24.9068C155 25.2412 154.917 25.5588 154.752 25.8764C154.587 26.1773 154.339 26.428 154.042 26.5952C153.728 26.7623 153.414 26.8459 153.084 26.8459C152.753 26.8459 152.439 26.7623 152.125 26.5952C151.828 26.428 151.597 26.1773 151.415 25.8764C151.25 25.5588 151.167 25.2412 151.167 24.9068C151.167 24.5725 151.25 24.2382 151.431 23.9373C151.597 23.6197 151.828 23.3857 152.142 23.2185C152.456 23.0514 152.77 22.9678 153.084 22.9678ZM153.084 23.2854C152.819 23.2854 152.555 23.3522 152.291 23.5027C152.043 23.6364 151.844 23.837 151.696 24.0878C151.547 24.3552 151.481 24.6227 151.481 24.9068C151.481 25.191 151.547 25.4585 151.696 25.7092C151.844 25.96 152.043 26.1605 152.291 26.311C152.538 26.4614 152.803 26.5283 153.084 26.5283C153.364 26.5283 153.629 26.4614 153.877 26.311C154.141 26.1605 154.339 25.96 154.471 25.7092C154.62 25.4585 154.686 25.191 154.686 24.9068C154.686 24.6227 154.62 24.3552 154.471 24.0878C154.323 23.837 154.124 23.6364 153.877 23.5027C153.612 23.3522 153.348 23.2854 153.084 23.2854ZM152.241 25.9767V23.8872H152.951C153.199 23.8872 153.364 23.9039 153.48 23.954C153.596 23.9875 153.678 24.0543 153.744 24.1546C153.81 24.2549 153.844 24.3552 153.844 24.4555C153.844 24.606 153.777 24.7397 153.678 24.8567C153.563 24.9737 153.43 25.0239 153.249 25.0406C153.315 25.074 153.381 25.1074 153.414 25.1576C153.497 25.2412 153.612 25.3749 153.728 25.5755L153.976 25.9767H153.579L153.381 25.6423C153.249 25.3916 153.133 25.2244 153.034 25.1576C152.984 25.1074 152.885 25.0907 152.77 25.0907H152.571V25.9767H152.241ZM152.571 24.8065H152.984C153.183 24.8065 153.298 24.7731 153.381 24.723C153.447 24.6561 153.48 24.5725 153.48 24.4889C153.48 24.4221 153.464 24.3719 153.43 24.3218C153.397 24.2716 153.348 24.2382 153.298 24.2048C153.232 24.188 153.117 24.1713 152.951 24.1713H152.571V24.8065Z" fill="white"/>
<path fill-rule="evenodd" clip-rule="evenodd" d="M75.6827 31.0752C76.7566 31.0752 77.7313 31.2591 78.5904 31.6436C79.466 32.0113 80.2094 32.5629 80.8207 33.2984C81.432 34.0172 81.8946 34.9032 82.225 35.9229C82.5554 36.976 82.7206 38.1461 82.7206 39.45C82.7206 40.7873 82.5554 41.9741 82.2085 43.0105C81.8781 44.0636 81.4155 44.9329 80.8042 45.6684C80.1929 46.3872 79.4495 46.9388 78.5739 47.3065C77.7148 47.691 76.74 47.8749 75.6827 47.8749C74.6253 47.8749 73.6506 47.691 72.7915 47.3233C71.9324 46.9555 71.189 46.4039 70.5777 45.6851C69.9664 44.9663 69.5038 44.0803 69.1569 43.0272C68.81 41.9908 68.6447 40.7873 68.6447 39.45C68.6447 38.1294 68.81 36.9426 69.1569 35.9062C69.4873 34.8698 69.9664 34.0005 70.5612 33.2817C71.1725 32.5629 71.9159 32.0113 72.7915 31.6436C73.6506 31.2591 74.6253 31.0752 75.6827 31.0752ZM75.6827 46.2367C76.4757 46.2367 77.2191 46.0863 77.88 45.8188C78.5408 45.5346 79.1025 45.1 79.5816 44.5317C80.0442 43.9633 80.4242 43.2445 80.6886 42.4087C80.9529 41.5562 81.0851 40.57 81.0851 39.45C81.0851 38.33 80.9529 37.3437 80.6886 36.5079C80.4242 35.6554 80.0442 34.9533 79.5816 34.4017C79.1025 33.8501 78.5408 33.4322 77.88 33.148C77.2191 32.8638 76.4757 32.7134 75.6827 32.7134C74.8732 32.7134 74.1297 32.8638 73.4689 33.148C72.808 33.4322 72.2463 33.8501 71.7672 34.4017C71.2881 34.9533 70.9246 35.6554 70.6603 36.5079C70.4125 37.3437 70.2803 38.33 70.2803 39.45C70.2803 40.57 70.4125 41.5562 70.6603 42.4087C70.9246 43.2445 71.2881 43.9633 71.7672 44.5317C72.2463 45.1 72.808 45.5346 73.4689 45.8188C74.1297 46.0863 74.8732 46.2367 75.6827 46.2367ZM94.2358 32.7635C94.0871 32.7301 93.9219 32.7134 93.7402 32.7134C93.5749 32.7134 93.3932 32.7134 93.1619 32.7134C92.6993 32.7134 92.2533 32.8137 91.8072 33.0143C91.3776 33.1982 90.9646 33.4489 90.5681 33.7665C90.1716 34.0674 89.8082 34.4184 89.4777 34.8029C89.1308 35.2041 88.8499 35.6053 88.6021 36.0065V47.457H86.9665V31.4931H88.6021V33.6829C89.0647 33.1313 89.5108 32.6967 89.9734 32.3456C90.436 32.0113 90.8655 31.7439 91.295 31.5433C91.7246 31.3594 92.1376 31.2257 92.5176 31.1588C92.9141 31.1086 93.2776 31.0752 93.608 31.0752C93.7071 31.0752 93.8228 31.0752 93.9054 31.0752C94.0045 31.0919 94.1036 31.1086 94.2358 31.1086V32.7635ZM109.402 47.457H107.37L101.588 38.4804L99.0104 41.0046V47.457H97.3913V24.8735H99.0104V38.9151L106.61 31.4597H108.741L102.728 37.3437L109.402 47.457ZM118.935 31.0752C120.009 31.0752 120.983 31.2591 121.859 31.6436C122.718 32.0113 123.478 32.5629 124.073 33.2984C124.684 34.0172 125.163 34.9032 125.494 35.9229C125.807 36.976 125.973 38.1461 125.973 39.45C125.973 40.7873 125.807 41.9741 125.477 43.0105C125.147 44.0636 124.667 44.9329 124.056 45.6684C123.445 46.3872 122.701 46.9388 121.842 47.3065C120.967 47.691 119.992 47.8749 118.935 47.8749C117.877 47.8749 116.919 47.691 116.06 47.3233C115.184 46.9555 114.457 46.4039 113.846 45.6851C113.235 44.9663 112.756 44.0803 112.425 43.0272C112.078 41.9908 111.913 40.7873 111.913 39.45C111.913 38.1294 112.078 36.9426 112.409 35.9062C112.739 34.8698 113.218 34.0005 113.83 33.2817C114.441 32.5629 115.184 32.0113 116.044 31.6436C116.919 31.2591 117.877 31.0752 118.935 31.0752ZM118.935 46.2367C119.744 46.2367 120.471 46.0863 121.132 45.8188C121.793 45.5346 122.371 45.1 122.834 44.5317C123.313 43.9633 123.693 43.2445 123.957 42.4087C124.221 41.5562 124.354 40.57 124.354 39.45C124.354 38.33 124.221 37.3437 123.957 36.5079C123.693 35.6554 123.313 34.9533 122.834 34.4017C122.371 33.8501 121.793 33.4322 121.132 33.148C120.471 32.8638 119.744 32.7134 118.935 32.7134C118.125 32.7134 117.398 32.8638 116.737 33.148C116.077 33.4322 115.498 33.8501 115.019 34.4017C114.557 34.9533 114.177 35.6554 113.929 36.5079C113.664 37.3437 113.532 38.33 113.532 39.45C113.532 40.57 113.664 41.5562 113.929 42.4087C114.177 43.2445 114.557 43.9633 115.019 44.5317C115.498 45.1 116.077 45.5346 116.737 45.8188C117.398 46.0863 118.125 46.2367 118.935 46.2367ZM151.052 47.457H149.432V37.0261C149.432 35.505 149.201 34.4017 148.722 33.7331C148.259 33.0644 147.433 32.7134 146.26 32.7134C145.385 32.7134 144.542 32.9976 143.733 33.5325C142.907 34.0841 142.114 34.853 141.337 35.8393V47.457H139.702V37.0261C139.702 36.2739 139.652 35.622 139.553 35.0704C139.454 34.5187 139.289 34.0674 139.041 33.7331C138.793 33.382 138.479 33.1313 138.066 32.9641C137.67 32.797 137.174 32.7134 136.596 32.7134C135.737 32.7134 134.927 32.9976 134.151 33.5325C133.391 34.0841 132.598 34.853 131.821 35.8393V47.457H130.185V31.4931H131.821V33.8501C132.366 33.2316 132.878 32.7468 133.358 32.3791C133.837 32.0113 134.283 31.7439 134.712 31.5433C135.142 31.3594 135.555 31.2257 135.935 31.1588C136.331 31.1086 136.695 31.0752 137.042 31.0752C138.066 31.0752 138.925 31.3092 139.652 31.794C140.362 32.2788 140.891 33.0143 141.222 34.0005C141.618 33.4322 142.048 32.9474 142.51 32.5629C142.956 32.1952 143.419 31.8943 143.881 31.677C144.361 31.4597 144.823 31.2925 145.302 31.2089C145.781 31.1086 146.244 31.0752 146.69 31.0752C149.598 31.0752 151.052 33.0143 151.052 36.8924V47.457Z" fill="white"/>
<path fill-rule="evenodd" clip-rule="evenodd" d="M10.9865 0H52.9994C59.0461 0 64.0024 5.01483 64.0024 11.1329V50.8838C64.0024 57.0019 59.0461 62 52.9994 62H10.9865C4.93978 62 0 57.0019 0 50.8838V11.1329C0 5.01483 4.93978 0 10.9865 0Z" fill="white"/>
<path d="M37.1394 42.7553L32.0314 23.5868L26.8588 42.7553C26.4565 44.2091 26.1332 45.2558 25.8889 45.8955C25.659 46.5206 25.2495 47.0876 24.6604 47.5964C24.0713 48.0907 23.2883 48.3379 22.3112 48.3379C21.5209 48.3379 20.8672 48.1852 20.3499 47.8799C19.847 47.5892 19.4375 47.1748 19.1214 46.6369C18.8053 46.0845 18.5467 45.4375 18.3455 44.6961C18.1444 43.9401 17.9648 43.2423 17.8067 42.6026L12.5479 21.079C12.2318 19.8287 12.0737 18.8765 12.0737 18.2223C12.0737 17.3936 12.3611 16.6958 12.9358 16.1288C13.5106 15.5618 14.2218 15.2783 15.0695 15.2783C16.2334 15.2783 17.0165 15.6563 17.4188 16.4123C17.8211 17.1683 18.1731 18.2659 18.4748 19.7052L22.6129 38.372L27.2467 20.9046C27.5916 19.567 27.9005 18.5494 28.1735 17.8516C28.4465 17.1537 28.8919 16.5504 29.5098 16.0416C30.1276 15.5327 30.9682 15.2783 32.0314 15.2783C33.1091 15.2783 33.9424 15.5473 34.5315 16.0852C35.135 16.6086 35.5517 17.1828 35.7816 17.8079C36.0115 18.4331 36.3204 19.4653 36.7083 20.9046L41.3852 38.372L45.5233 19.7052C45.7245 18.7311 45.9113 17.9679 46.0837 17.4154C46.2705 16.863 46.5794 16.3687 47.0105 15.9325C47.4559 15.4964 48.0953 15.2783 48.9286 15.2783C49.762 15.2783 50.4661 15.5618 51.0408 16.1288C51.6299 16.6812 51.9245 17.3791 51.9245 18.2223C51.9245 18.8183 51.7664 19.7706 51.4503 21.079L46.1915 42.6026C45.8323 44.0564 45.5305 45.125 45.2863 45.8082C45.0564 46.477 44.654 47.0658 44.0793 47.5746C43.5189 48.0835 42.7215 48.3379 41.687 48.3379C40.7099 48.3379 39.9269 48.0907 39.3377 47.5964C38.7486 47.1021 38.3391 46.5497 38.1092 45.9391C37.8794 45.314 37.5561 44.2527 37.1394 42.7553Z" fill="#24252A"/>
</svg>
