<svg width="131" height="53" viewBox="0 0 131 53" fill="none" xmlns="http://www.w3.org/2000/svg">
<path fill-rule="evenodd" clip-rule="evenodd" d="M66.3658 49.3562H66.0586L65.2487 46.4697C65.2208 46.3982 65.2068 46.2839 65.1789 46.1553H65.1649C65.1649 46.2125 65.137 46.3125 65.0951 46.4697L64.1875 49.3562H63.8664L62.7494 45.5408H63.1124L63.9781 48.5845C64.006 48.656 64.02 48.7703 64.0339 48.8989H64.0619C64.0758 48.8274 64.0898 48.7131 64.1317 48.5845L65.0812 45.5408H65.3046L66.1563 48.5845C66.1703 48.656 66.1842 48.756 66.1982 48.8989H66.2261C66.2261 48.8274 66.2541 48.7131 66.2959 48.5845L67.1756 45.5408H67.5247L66.3658 49.3562ZM69.7448 49.4419C69.2002 49.4419 68.7813 49.2561 68.4602 48.8989C68.139 48.5274 67.9855 48.0558 67.9855 47.4699C67.9855 46.8269 68.153 46.3411 68.4742 45.9838C68.8093 45.6266 69.2421 45.4408 69.7867 45.4408C70.3173 45.4408 70.7361 45.6266 71.0433 45.9838C71.3505 46.3268 71.5041 46.8269 71.5041 47.4556C71.5041 48.0415 71.3505 48.5274 71.0433 48.8989C70.7222 49.2561 70.2893 49.4419 69.7448 49.4419ZM69.7727 45.7552C69.3399 45.7552 68.9908 45.9124 68.7255 46.2125C68.4602 46.5125 68.3345 46.9412 68.3345 47.4699C68.3345 47.9701 68.4602 48.3702 68.7115 48.6703C68.9629 48.9846 69.3119 49.1275 69.7587 49.1275C70.2056 49.1275 70.5546 48.9846 70.792 48.6845C71.0433 48.3845 71.155 47.9701 71.155 47.4414C71.155 46.8983 71.0433 46.484 70.792 46.1982C70.5546 45.8981 70.2195 45.7552 69.7727 45.7552ZM74.185 45.8981C74.0733 45.8123 73.9476 45.7695 73.794 45.7695C73.5008 45.7695 73.2634 45.9267 73.054 46.241C72.8585 46.5411 72.7608 46.9841 72.7608 47.5557V49.3562H72.4257V45.5408H72.7608V46.3839H72.7747C72.8585 46.0981 72.9981 45.8695 73.1797 45.698C73.3612 45.5408 73.5706 45.4551 73.8219 45.4551C73.9616 45.4551 74.0733 45.4837 74.185 45.5266V45.8981ZM77.0195 49.3562L75.2462 47.4699H75.2182V49.3562H74.8831V43.7118H75.2182V47.3413H75.2462L76.9357 45.5408H77.3685L75.5952 47.3842L77.5082 49.3562H77.0195ZM81.697 49.1847V48.7703C81.8227 48.8846 81.9763 48.9703 82.1578 49.0275C82.3393 49.0989 82.4929 49.1275 82.6186 49.1275C83.205 49.1275 83.4982 48.8846 83.4982 48.3988C83.4982 48.2273 83.4424 48.0844 83.3028 47.9701C83.1771 47.8415 82.9677 47.7271 82.6884 47.5985C82.3254 47.4414 82.074 47.2699 81.9344 47.0984C81.7808 46.9269 81.711 46.7269 81.711 46.484C81.711 46.1696 81.8367 45.9267 82.0601 45.7266C82.2974 45.5408 82.5767 45.4408 82.9258 45.4408C83.233 45.4408 83.5122 45.5123 83.7356 45.6409V46.0267C83.4703 45.8552 83.1771 45.7552 82.8839 45.7552C82.6325 45.7552 82.4371 45.8266 82.2835 45.9552C82.1438 46.0838 82.0601 46.2553 82.0601 46.4554C82.0601 46.6411 82.1159 46.784 82.1997 46.8983C82.2974 47.0127 82.5069 47.1413 82.828 47.2842C83.219 47.4699 83.4843 47.6414 83.6379 47.7843C83.7775 47.9415 83.8473 48.1415 83.8473 48.3988C83.8473 48.6988 83.7356 48.956 83.5122 49.1418C83.2888 49.3419 82.9956 49.4419 82.6046 49.4419C82.2416 49.4419 81.9344 49.3562 81.697 49.1847ZM86.2629 49.299C86.0814 49.3847 85.9138 49.4276 85.7742 49.4276C85.2157 49.4276 84.9364 49.0847 84.9364 48.413V45.8552H84.2662V45.5408H84.9364V44.5406C84.9923 44.5263 85.0481 44.512 85.104 44.4834C85.1738 44.4691 85.2296 44.4548 85.2715 44.4263V45.5408H86.2629V45.8552H85.2715V48.3702C85.2715 48.6274 85.3134 48.8132 85.3972 48.9418C85.481 49.0561 85.6206 49.1132 85.8161 49.1132C85.9557 49.1132 86.0953 49.0704 86.2629 48.9703V49.299ZM89.4604 49.3562V48.656H89.4464C89.1812 49.1847 88.7762 49.4419 88.2456 49.4419C87.366 49.4419 86.9192 48.8703 86.9192 47.7414V45.5408H87.2543V47.6557C87.2543 48.1701 87.338 48.5416 87.5056 48.7846C87.6732 49.0132 87.9385 49.1275 88.2875 49.1275C88.6366 49.1275 88.9159 48.9989 89.1393 48.7417C89.3487 48.4845 89.4604 48.1273 89.4604 47.6986V45.5408H89.7955V49.3562H89.4604ZM93.6214 49.3562V48.656H93.6074C93.4957 48.8989 93.3142 49.0847 93.0768 49.2275C92.8394 49.3704 92.5741 49.4419 92.267 49.4419C91.8062 49.4419 91.4431 49.2704 91.1499 48.9275C90.8567 48.5845 90.7171 48.113 90.7171 47.5128C90.7171 46.8983 90.8707 46.3982 91.1918 46.0124C91.499 45.6409 91.9179 45.4408 92.4205 45.4408C92.9791 45.4408 93.37 45.6837 93.6074 46.141H93.6214V43.7118H93.9565V49.3562H93.6214ZM93.6214 47.027C93.6214 46.6697 93.5236 46.3696 93.3002 46.1267C93.0768 45.8838 92.7836 45.7552 92.4066 45.7552C92.0156 45.7552 91.6945 45.9124 91.4431 46.2125C91.1918 46.5268 91.0661 46.9412 91.0661 47.4842C91.0661 48.0129 91.1778 48.413 91.4013 48.6988C91.6386 48.9846 91.9318 49.1275 92.2949 49.1275C92.7138 49.1275 93.0489 48.9989 93.2723 48.7274C93.5097 48.4559 93.6214 48.1273 93.6214 47.7414V47.027ZM96.0649 50.1278C95.9252 50.4707 95.7716 50.728 95.6181 50.8851C95.4505 51.0566 95.2411 51.1424 94.9758 51.1424C94.8641 51.1424 94.7663 51.1281 94.6825 51.0852V50.7422C94.7803 50.7851 94.878 50.7994 94.9897 50.7994C95.2969 50.7994 95.5203 50.5851 95.7018 50.1707L96.0369 49.3133L94.6267 45.5408H95.0037L96.1347 48.6417C96.1486 48.7131 96.1766 48.756 96.1766 48.7989C96.1905 48.8417 96.2045 48.8846 96.2185 48.9275H96.2324L96.3162 48.6703L97.517 45.5408H97.88L96.0649 50.1278ZM102.795 49.3562V48.5845H102.781C102.669 48.8417 102.488 49.0561 102.264 49.2133C102.041 49.3704 101.79 49.4419 101.51 49.4419C101.161 49.4419 100.882 49.3419 100.673 49.1418C100.463 48.9275 100.365 48.6703 100.365 48.3702C100.365 47.6986 100.798 47.2985 101.65 47.1556L102.795 46.9841C102.795 46.1696 102.502 45.7552 101.901 45.7552C101.482 45.7552 101.092 45.9267 100.701 46.2696V45.8552C100.84 45.7409 101.022 45.6409 101.259 45.5694C101.496 45.4837 101.72 45.4408 101.929 45.4408C102.306 45.4408 102.613 45.5694 102.823 45.8123C103.032 46.0553 103.13 46.4125 103.13 46.8698V49.3562H102.795ZM101.776 47.4556C101.385 47.5128 101.105 47.5985 100.952 47.7271C100.798 47.8558 100.715 48.0701 100.715 48.3559C100.715 48.5845 100.784 48.7703 100.938 48.9132C101.078 49.0561 101.287 49.1275 101.552 49.1275C101.901 49.1275 102.209 48.9989 102.446 48.7274C102.683 48.4559 102.795 48.0987 102.795 47.67V47.2985L101.776 47.4556ZM106.788 49.3562V47.127C106.788 46.2125 106.467 45.7552 105.825 45.7552C105.462 45.7552 105.169 45.8981 104.931 46.1553C104.708 46.4268 104.582 46.7697 104.582 47.1556V49.3562H104.247V45.5408H104.582V46.2267H104.61C104.875 45.7123 105.294 45.4408 105.881 45.4408C106.286 45.4408 106.593 45.5837 106.802 45.8552C107.012 46.1267 107.123 46.5268 107.123 47.027V49.3562H106.788ZM110.88 49.3562V48.656H110.866C110.754 48.8989 110.572 49.0847 110.335 49.2275C110.098 49.3704 109.832 49.4419 109.525 49.4419C109.064 49.4419 108.701 49.2704 108.408 48.9275C108.115 48.5845 107.975 48.113 107.975 47.5128C107.975 46.8983 108.129 46.3982 108.45 46.0124C108.757 45.6409 109.176 45.4408 109.679 45.4408C110.237 45.4408 110.628 45.6837 110.866 46.141H110.88V43.7118H111.215V49.3562H110.88ZM110.88 47.027C110.88 46.6697 110.782 46.3696 110.558 46.1267C110.335 45.8838 110.042 45.7552 109.665 45.7552C109.274 45.7552 108.953 45.9124 108.701 46.2125C108.45 46.5268 108.324 46.9412 108.324 47.4842C108.324 48.0129 108.436 48.413 108.659 48.6988C108.897 48.9846 109.19 49.1275 109.553 49.1275C109.972 49.1275 110.307 48.9989 110.53 48.7274C110.768 48.4559 110.88 48.1273 110.88 47.7414V47.027ZM114.803 48.6703H114.789V51.0995H114.454V45.5408H114.789V46.3268H114.803C114.943 46.041 115.124 45.8266 115.376 45.6694C115.627 45.5266 115.892 45.4408 116.199 45.4408C116.674 45.4408 117.037 45.6123 117.302 45.9409C117.568 46.2839 117.707 46.7269 117.707 47.3127C117.707 47.9415 117.554 48.4559 117.247 48.856C116.939 49.2418 116.534 49.4419 116.046 49.4419C115.487 49.4419 115.068 49.1847 114.803 48.6703ZM114.789 47.2556V47.7271C114.789 48.113 114.901 48.4416 115.138 48.7131C115.376 48.9989 115.683 49.1275 116.074 49.1275C116.451 49.1275 116.758 48.956 116.995 48.6274C117.233 48.2987 117.358 47.8558 117.358 47.3127C117.358 46.8412 117.247 46.4554 117.023 46.1839C116.814 45.8981 116.521 45.7552 116.157 45.7552C115.725 45.7552 115.39 45.9124 115.152 46.1982C114.915 46.4982 114.789 46.8555 114.789 47.2556ZM118.629 49.3562V43.7118H118.964V49.3562H118.629ZM122.385 49.3562V48.5845H122.371C122.245 48.8417 122.078 49.0561 121.84 49.2133C121.617 49.3704 121.366 49.4419 121.086 49.4419C120.737 49.4419 120.458 49.3419 120.249 49.1418C120.053 48.9275 119.941 48.6703 119.941 48.3702C119.941 47.6986 120.374 47.2985 121.24 47.1556L122.385 46.9841C122.385 46.1696 122.078 45.7552 121.477 45.7552C121.072 45.7552 120.668 45.9267 120.277 46.2696V45.8552C120.416 45.7409 120.612 45.6409 120.849 45.5694C121.072 45.4837 121.296 45.4408 121.505 45.4408C121.896 45.4408 122.189 45.5694 122.399 45.8123C122.608 46.0553 122.72 46.4125 122.72 46.8698V49.3562H122.385ZM121.352 47.4556C120.961 47.5128 120.695 47.5985 120.528 47.7271C120.374 47.8558 120.291 48.0701 120.291 48.3559C120.291 48.5845 120.374 48.7703 120.514 48.9132C120.668 49.0561 120.863 49.1275 121.128 49.1275C121.491 49.1275 121.785 48.9989 122.022 48.7274C122.259 48.4559 122.385 48.0987 122.385 47.67V47.2985L121.352 47.4556ZM124.745 50.1278C124.605 50.4707 124.451 50.728 124.298 50.8851C124.13 51.0566 123.921 51.1424 123.656 51.1424C123.544 51.1424 123.446 51.1281 123.362 51.0852V50.7422C123.46 50.7851 123.558 50.7994 123.67 50.7994C123.977 50.7994 124.2 50.5851 124.382 50.1707L124.717 49.3133L123.307 45.5408H123.684L124.814 48.6417C124.828 48.7131 124.856 48.756 124.856 48.7989C124.87 48.8417 124.884 48.8846 124.898 48.9275H124.912L124.996 48.6703L126.197 45.5408H126.56L124.745 50.1278ZM78.0527 50.2707H77.7735L78.318 48.4988H78.681L78.0527 50.2707Z" fill="#2C2D32"/>
<path fill-rule="evenodd" clip-rule="evenodd" d="M129.38 19.6339C129.66 19.6339 129.925 19.7053 130.176 19.8482C130.441 19.9911 130.637 20.1911 130.791 20.4626C130.93 20.7199 131 21.0056 131 21.2914C131 21.5772 130.93 21.8487 130.791 22.1202C130.651 22.3774 130.441 22.5918 130.19 22.7347C129.925 22.8776 129.66 22.949 129.38 22.949C129.101 22.949 128.836 22.8776 128.57 22.7347C128.319 22.5918 128.124 22.3774 127.97 22.1202C127.83 21.8487 127.761 21.5772 127.761 21.2914C127.761 21.0056 127.83 20.7199 127.984 20.4626C128.124 20.1911 128.319 19.9911 128.584 19.8482C128.85 19.7053 129.115 19.6339 129.38 19.6339ZM129.38 19.9054C129.157 19.9054 128.933 19.9625 128.71 20.0911C128.501 20.2054 128.333 20.3769 128.207 20.5913C128.082 20.8199 128.026 21.0485 128.026 21.2914C128.026 21.5344 128.082 21.763 128.207 21.9773C128.333 22.1917 128.501 22.3632 128.71 22.4918C128.92 22.6204 129.143 22.6775 129.38 22.6775C129.618 22.6775 129.841 22.6204 130.051 22.4918C130.274 22.3632 130.441 22.1917 130.553 21.9773C130.679 21.763 130.735 21.5344 130.735 21.2914C130.735 21.0485 130.679 20.8199 130.553 20.5913C130.428 20.3769 130.26 20.2054 130.051 20.0911C129.827 19.9625 129.604 19.9054 129.38 19.9054ZM128.668 22.206V20.4198H129.269C129.478 20.4198 129.618 20.4341 129.715 20.4769C129.813 20.5055 129.883 20.5627 129.939 20.6484C129.995 20.7341 130.023 20.8199 130.023 20.9056C130.023 21.0342 129.967 21.1485 129.883 21.2486C129.785 21.3486 129.674 21.3915 129.52 21.4058C129.576 21.4343 129.632 21.4629 129.66 21.5058C129.729 21.5772 129.827 21.6915 129.925 21.863L130.134 22.206H129.799L129.632 21.9202C129.52 21.7058 129.422 21.5629 129.338 21.5058C129.297 21.4629 129.213 21.4486 129.115 21.4486H128.947V22.206H128.668ZM128.947 21.2057H129.297C129.464 21.2057 129.562 21.1771 129.632 21.1343C129.687 21.0771 129.715 21.0056 129.715 20.9342C129.715 20.877 129.701 20.8342 129.674 20.7913C129.646 20.7484 129.604 20.7199 129.562 20.6913C129.506 20.677 129.408 20.6627 129.269 20.6627H128.947V21.2057Z" fill="#2C2D32"/>
<path fill-rule="evenodd" clip-rule="evenodd" d="M63.9641 26.5642C64.8717 26.5642 65.6955 26.7214 66.4216 27.0501C67.1616 27.3645 67.7899 27.836 68.3066 28.4648C68.8232 29.0792 69.2141 29.8366 69.4934 30.7082C69.7727 31.6085 69.9123 32.6087 69.9123 33.7233C69.9123 34.8665 69.7727 35.881 69.4794 36.767C69.2002 37.6672 68.8092 38.4103 68.2926 39.039C67.776 39.6535 67.1476 40.125 66.4076 40.4394C65.6815 40.7681 64.8577 40.9253 63.9641 40.9253C63.0705 40.9253 62.2466 40.7681 61.5206 40.4537C60.7945 40.1393 60.1662 39.6678 59.6495 39.0533C59.1329 38.4389 58.742 37.6815 58.4487 36.7813C58.1555 35.8953 58.0159 34.8665 58.0159 33.7233C58.0159 32.5944 58.1555 31.5799 58.4487 30.6939C58.728 29.808 59.1329 29.0649 59.6356 28.4505C60.1522 27.836 60.7805 27.3645 61.5206 27.0501C62.2466 26.7214 63.0705 26.5642 63.9641 26.5642ZM63.9641 39.5249C64.6343 39.5249 65.2626 39.3963 65.8212 39.1676C66.3797 38.9247 66.8544 38.5532 67.2593 38.0673C67.6503 37.5815 67.9714 36.9671 68.1948 36.2526C68.4183 35.5238 68.53 34.6807 68.53 33.7233C68.53 32.7659 68.4183 31.9228 68.1948 31.2084C67.9714 30.4796 67.6503 29.8794 67.2593 29.4079C66.8544 28.9363 66.3797 28.5791 65.8212 28.3362C65.2626 28.0932 64.6343 27.9646 63.9641 27.9646C63.2799 27.9646 62.6516 28.0932 62.0931 28.3362C61.5345 28.5791 61.0598 28.9363 60.6549 29.4079C60.25 29.8794 59.9428 30.4796 59.7194 31.2084C59.5099 31.9228 59.3982 32.7659 59.3982 33.7233C59.3982 34.6807 59.5099 35.5238 59.7194 36.2526C59.9428 36.9671 60.25 37.5815 60.6549 38.0673C61.0598 38.5532 61.5345 38.9247 62.0931 39.1676C62.6516 39.3963 63.2799 39.5249 63.9641 39.5249ZM79.6444 28.0075C79.5188 27.9789 79.3791 27.9646 79.2255 27.9646C79.0859 27.9646 78.9323 27.9646 78.7368 27.9646C78.3459 27.9646 77.9689 28.0504 77.5919 28.2218C77.2289 28.379 76.8798 28.5934 76.5447 28.8649C76.2096 29.1221 75.9024 29.4222 75.6231 29.7508C75.3299 30.0938 75.0925 30.4367 74.8831 30.7797V40.568H73.5008V26.9215H74.8831V28.7934C75.274 28.3219 75.651 27.9503 76.042 27.6503C76.433 27.3645 76.796 27.1358 77.159 26.9644C77.5221 26.8072 77.8711 26.6929 78.1923 26.6357C78.5274 26.5928 78.8346 26.5642 79.1138 26.5642C79.1976 26.5642 79.2954 26.5642 79.3652 26.5642C79.449 26.5785 79.5327 26.5928 79.6444 26.5928V28.0075ZM92.4624 40.568H90.745L85.8579 32.8945L83.6797 35.0522V40.568H82.3114V21.2628H83.6797V33.2661L90.1027 26.8929H91.9039L86.8214 31.9228L92.4624 40.568ZM100.519 26.5642C101.427 26.5642 102.25 26.7214 102.99 27.0501C103.716 27.3645 104.359 27.836 104.861 28.4648C105.378 29.0792 105.783 29.8366 106.062 30.7082C106.328 31.6085 106.467 32.6087 106.467 33.7233C106.467 34.8665 106.328 35.881 106.048 36.767C105.769 37.6672 105.364 38.4103 104.847 39.039C104.331 39.6535 103.703 40.125 102.976 40.4394C102.236 40.7681 101.413 40.9253 100.519 40.9253C99.6254 40.9253 98.8155 40.7681 98.0894 40.4537C97.3494 40.1393 96.735 39.6678 96.2184 39.0533C95.7018 38.4389 95.2969 37.6815 95.0176 36.7813C94.7244 35.8953 94.5848 34.8665 94.5848 33.7233C94.5848 32.5944 94.7244 31.5799 95.0036 30.6939C95.2829 29.808 95.6878 29.0649 96.2045 28.4505C96.7211 27.836 97.3494 27.3645 98.0755 27.0501C98.8155 26.7214 99.6254 26.5642 100.519 26.5642ZM100.519 39.5249C101.203 39.5249 101.818 39.3963 102.376 39.1676C102.935 38.9247 103.423 38.5532 103.814 38.0673C104.219 37.5815 104.54 36.9671 104.764 36.2526C104.987 35.5238 105.099 34.6807 105.099 33.7233C105.099 32.7659 104.987 31.9228 104.764 31.2084C104.54 30.4796 104.219 29.8794 103.814 29.4079C103.423 28.9363 102.935 28.5791 102.376 28.3362C101.818 28.0932 101.203 27.9646 100.519 27.9646C99.8348 27.9646 99.2204 28.0932 98.6619 28.3362C98.1034 28.5791 97.6147 28.9363 97.2098 29.4079C96.8188 29.8794 96.4977 30.4796 96.2882 31.2084C96.0648 31.9228 95.9531 32.7659 95.9531 33.7233C95.9531 34.6807 96.0648 35.5238 96.2882 36.2526C96.4977 36.9671 96.8188 37.5815 97.2098 38.0673C97.6147 38.5532 98.1034 38.9247 98.6619 39.1676C99.2204 39.3963 99.8348 39.5249 100.519 39.5249ZM127.663 40.568H126.295V31.6513C126.295 30.351 126.099 29.4079 125.694 28.8363C125.303 28.2647 124.605 27.9646 123.614 27.9646C122.874 27.9646 122.162 28.2075 121.477 28.6648C120.779 29.1364 120.109 29.7937 119.453 30.6368V40.568H118.07V31.6513C118.07 31.0083 118.028 30.451 117.945 29.9795C117.861 29.5079 117.721 29.1221 117.512 28.8363C117.302 28.5362 117.037 28.3219 116.688 28.179C116.353 28.0361 115.934 27.9646 115.445 27.9646C114.719 27.9646 114.035 28.2075 113.379 28.6648C112.737 29.1364 112.066 29.7937 111.41 30.6368V40.568H110.028V26.9215H111.41V28.9363C111.871 28.4076 112.304 27.9932 112.709 27.6788C113.114 27.3645 113.491 27.1358 113.854 26.9644C114.217 26.8072 114.566 26.6929 114.887 26.6357C115.222 26.5928 115.529 26.5642 115.822 26.5642C116.688 26.5642 117.414 26.7643 118.028 27.1787C118.629 27.5931 119.076 28.2218 119.355 29.0649C119.69 28.5791 120.053 28.1647 120.444 27.836C120.821 27.5216 121.212 27.2644 121.603 27.0787C122.008 26.8929 122.399 26.75 122.804 26.6786C123.209 26.5928 123.6 26.5642 123.977 26.5642C126.434 26.5642 127.663 28.2218 127.663 31.537V40.568Z" fill="#2C2D32"/>
<path fill-rule="evenodd" clip-rule="evenodd" d="M9.28534 0H44.793C49.9034 0 54.0923 4.28687 54.0923 9.51685V43.4974C54.0923 48.7274 49.9034 53 44.793 53H9.28534C4.17491 53 0 48.7274 0 43.4974V9.51685C0 4.28687 4.17491 0 9.28534 0Z" fill="#2C2D32"/>
<path d="M31.3888 36.549L27.0717 20.163L22.7 36.549C22.36 37.7917 22.0868 38.6865 21.8803 39.2333C21.686 39.7677 21.3399 40.2524 20.842 40.6874C20.3442 41.1099 19.6823 41.3212 18.8566 41.3212C18.1887 41.3212 17.6361 41.1907 17.199 40.9297C16.7739 40.6812 16.4278 40.327 16.1607 39.8672C15.8935 39.3949 15.6749 38.8419 15.5049 38.2081C15.3349 37.5618 15.1831 36.9653 15.0495 36.4185L10.605 18.0193C10.3378 16.9505 10.2043 16.1365 10.2043 15.5772C10.2043 14.8688 10.4471 14.2723 10.9329 13.7876C11.4186 13.3029 12.0197 13.0606 12.7362 13.0606C13.7198 13.0606 14.3817 13.3837 14.7217 14.03C15.0617 14.6762 15.3592 15.6145 15.6142 16.8448L19.1116 32.802L23.0279 17.8701C23.3193 16.7268 23.5804 15.8568 23.8112 15.2603C24.0419 14.6638 24.4183 14.148 24.9405 13.7131C25.4627 13.2781 26.1731 13.0606 27.0717 13.0606C27.9825 13.0606 28.6868 13.2905 29.1847 13.7503C29.6947 14.1977 30.0469 14.6886 30.2412 15.223C30.4355 15.7574 30.6966 16.6398 31.0245 17.8701L34.9772 32.802L38.4746 16.8448C38.6446 16.0122 38.8024 15.3597 38.9482 14.8875C39.106 14.4152 39.3671 13.9927 39.7314 13.6199C40.1079 13.247 40.6483 13.0606 41.3526 13.0606C42.0569 13.0606 42.652 13.3029 43.1377 13.7876C43.6356 14.2599 43.8845 14.8564 43.8845 15.5772C43.8845 16.0868 43.751 16.9008 43.4838 18.0193L39.0392 36.4185C38.7356 37.6612 38.4806 38.5747 38.2742 39.1588C38.0799 39.7304 37.7399 40.2338 37.2541 40.6687C36.7805 41.1037 36.1066 41.3212 35.2322 41.3212C34.4065 41.3212 33.7446 41.1099 33.2467 40.6874C32.7489 40.2648 32.4028 39.7926 32.2085 39.2706C32.0142 38.7362 31.7409 37.829 31.3888 36.549Z" fill="white"/>
</svg>
