<svg width="13" height="14" viewBox="0 0 13 14" fill="none" xmlns="http://www.w3.org/2000/svg">
<path d="M8.61719 7.06664L12.9998 9.83727V4.17902L8.61719 7.06664Z" fill="#1E1E1E"/>
<path d="M0 4.17902V9.83727L4.38263 7.06664L0 4.17902Z" fill="#1E1E1E"/>
<path d="M12.1866 2.53125H0.811563C0.406125 2.53125 0.084375 2.8335 0.0234375 3.22269L6.49906 7.48913L12.9747 3.22269C12.9138 2.8335 12.592 2.53125 12.1866 2.53125Z" fill="#1E1E1E"/>
<path d="M7.87252 7.55745L6.72283 8.3147C6.65458 8.35939 6.57739 8.38133 6.49939 8.38133C6.42139 8.38133 6.3442 8.35939 6.27595 8.3147L5.12627 7.55664L0.0253906 10.7831C0.0879531 11.169 0.408078 11.4688 0.811891 11.4688H12.1869C12.5907 11.4688 12.9108 11.169 12.9734 10.7831L7.87252 7.55745Z" fill="#1E1E1E"/>
</svg>
