<svg width="13" height="14" viewBox="0 0 13 14" fill="none" xmlns="http://www.w3.org/2000/svg">
<g clip-path="url(#clip0_310_4614)">
<path d="M11.9569 9.03301C11.161 9.03301 10.3795 8.90853 9.63892 8.6638C9.27604 8.54003 8.82995 8.65357 8.60847 8.88104L7.14675 9.98448C5.45157 9.07959 4.40737 8.03573 3.51484 6.35328L4.58582 4.92965C4.86407 4.65177 4.96387 4.24586 4.84429 3.865C4.59851 3.12055 4.47366 2.33943 4.47366 1.54318C4.47369 0.967966 4.00573 0.5 3.43054 0.5H1.04315C0.467966 0.5 0 0.967966 0 1.54315C0 8.13625 5.36379 13.5 11.9569 13.5C12.5321 13.5 13 13.032 13 12.4569V10.0761C13 9.50098 12.532 9.03301 11.9569 9.03301Z" fill="#1E1E1E"/>
</g>
<defs>
<clipPath id="clip0_310_4614">
<rect width="13" height="13" fill="white" transform="translate(0 0.5)"/>
</clipPath>
</defs>
</svg>
