<svg width="35" height="35" viewBox="0 0 35 35" fill="none" xmlns="http://www.w3.org/2000/svg">
<circle cx="17.5" cy="17.5" r="17.5" fill="white" fill-opacity="0.13"/>
<path fill-rule="evenodd" clip-rule="evenodd" d="M16.4364 19.6371C16.8926 19.6482 17.3047 20.1007 18.5115 20.1007C20.7779 20.1118 22.3379 18.8093 22.8236 17.0985C24.516 11.1712 12.9926 10.6966 11.8153 15.5753C11.5357 16.7232 11.9919 18.0477 13.184 18.4782C14.0964 18.8093 14.1553 17.8601 13.8757 17.4517C12.6394 15.6415 14.1258 14.0079 16.0685 13.5443C17.8934 13.1028 19.1885 13.4671 20.1745 14.2287C21.4402 15.211 20.8662 17.8821 19.3651 18.732C18.8353 19.0301 17.864 19.0963 17.3636 18.7431C16.3334 18.0256 17.9228 16.5024 17.6874 15.3876C17.4519 14.2838 15.1266 14.4494 15.0089 16.072C14.95 16.8998 15.2738 17.1426 15.0236 17.9704C14.6262 19.295 13.4194 21.9992 14.273 23.0588C15.524 22.6173 16.1421 19.9683 16.4364 19.6371Z" fill="white"/>
</svg>
