<svg width="13" height="13" viewBox="0 0 13 13" fill="none" xmlns="http://www.w3.org/2000/svg">
<g clip-path="url(#clip0_559_5585)">
<path d="M11.0962 1.9038C9.8685 0.6761 8.2362 0 6.5 0C4.7638 0 3.1315 0.6761 1.9038 1.9038C0.6761 3.1315 0 4.7638 0 6.5C0 8.2362 0.6761 9.8685 1.9038 11.0962C3.1315 12.3239 4.76378 13 6.5 13C8.23622 13 9.8685 12.3239 11.0962 11.0962C12.3239 9.8685 13 8.23622 13 6.5C13 4.76378 12.3239 3.1315 11.0962 1.9038ZM9.37278 5.91428C9.30801 6.07064 9.15544 6.17261 8.98619 6.17261H7.91293V9.73209C7.91293 9.96319 7.72558 10.1505 7.49448 10.1505H5.50552C5.27442 10.1505 5.08707 9.96319 5.08707 9.73209V6.17261H4.01378C3.84453 6.17261 3.69196 6.07067 3.62719 5.91428C3.56244 5.75793 3.59823 5.57794 3.71791 5.45826L6.2041 2.97204C6.28257 2.89357 6.389 2.84946 6.49997 2.84946C6.61094 2.84946 6.7174 2.89354 6.79584 2.97204L9.28204 5.45826C9.40174 5.57794 9.43756 5.7579 9.37278 5.91428Z" fill="white"/>
</g>
<defs>
<clipPath id="clip0_559_5585">
<rect width="13" height="13" fill="white"/>
</clipPath>
</defs>
</svg>
