<svg width="35" height="35" viewBox="0 0 35 35" fill="none" xmlns="http://www.w3.org/2000/svg">
<g clip-path="url(#clip0_512_2827)">
<path d="M17.5 35C27.165 35 35 27.165 35 17.5C35 7.83502 27.165 0 17.5 0C7.83502 0 0 7.83502 0 17.5C0 27.165 7.83502 35 17.5 35Z" fill="white" fill-opacity="0.13"/>
<path fill-rule="evenodd" clip-rule="evenodd" d="M16.7852 22.9539H17.9807C17.9807 22.9539 18.3418 22.9157 18.5262 22.7241C18.6959 22.5482 18.6905 22.2179 18.6905 22.2179C18.6905 22.2179 18.6671 20.6714 19.4116 20.4436C20.1455 20.2193 21.0879 21.9383 22.0868 22.5993C22.8422 23.0995 23.4162 22.9898 23.4162 22.9898L26.087 22.9539C26.087 22.9539 27.4842 22.871 26.8218 21.8119C26.7675 21.7252 26.4359 21.0284 24.8359 19.5966C23.1612 18.098 23.3855 18.3403 25.4028 15.7481C26.6314 14.1694 27.1226 13.2056 26.9692 12.7928C26.8228 12.3996 25.9192 12.5035 25.9192 12.5035L22.912 12.5216C22.912 12.5216 22.689 12.4923 22.5237 12.5875C22.3621 12.681 22.2581 12.8988 22.2581 12.8988C22.2581 12.8988 21.7822 14.1204 21.1474 15.1594C19.8083 17.3517 19.2729 17.4674 19.054 17.3312C18.5449 17.014 18.672 16.0567 18.672 15.3766C18.672 13.2522 19.0062 12.3664 18.0212 12.137C17.6943 12.0609 17.4537 12.0106 16.6177 12.0025C15.5447 11.9918 14.6365 12.0056 14.1222 12.2486C13.7801 12.4101 13.5162 12.77 13.677 12.7907C13.8757 12.8163 14.3259 12.9077 14.5645 13.221C14.8727 13.6252 14.8618 14.533 14.8618 14.533C14.8618 14.533 15.0389 17.0339 14.4483 17.3446C14.043 17.5577 13.4869 17.1226 12.293 15.1337C11.6813 14.1149 11.2195 12.9888 11.2195 12.9888C11.2195 12.9888 11.1304 12.7784 10.9716 12.6658C10.7788 12.5294 10.5095 12.486 10.5095 12.486L7.65179 12.504C7.65179 12.504 7.2228 12.5156 7.06532 12.6954C6.92522 12.8553 7.05419 13.1862 7.05419 13.1862C7.05419 13.1862 9.29146 18.2325 11.8247 20.7755C14.1475 23.1071 16.7852 22.9539 16.7852 22.9539Z" fill="white"/>
</g>
<defs>
<clipPath id="clip0_512_2827">
<rect width="35" height="35" fill="white"/>
</clipPath>
</defs>
</svg>
